<?xml version="1.0" encoding="UTF-8" standalone="no"?>
<!-- Created with Inkscape (http://www.inkscape.org/) -->

<svg
   xmlns:dc="http://purl.org/dc/elements/1.1/"
   xmlns:cc="http://creativecommons.org/ns#"
   xmlns:rdf="http://www.w3.org/1999/02/22-rdf-syntax-ns#"
   xmlns:svg="http://www.w3.org/2000/svg"
   xmlns="http://www.w3.org/2000/svg"
   xmlns:sodipodi="http://sodipodi.sourceforge.net/DTD/sodipodi-0.dtd"
   xmlns:inkscape="http://www.inkscape.org/namespaces/inkscape"
   width="32"
   height="32"
   id="svg3062"
   version="1.1"
   inkscape:version="0.48.3.1 r9886"
   sodipodi:docname="good_anim.svg">
  <defs
     id="defs3064">
    <filter
       inkscape:collect="always"
       id="filter3824"
       x="-0.12001307"
       width="1.2400261"
       y="-0.11998693"
       height="1.2399739"
       color-interpolation-filters="sRGB">
      <feGaussianBlur
         inkscape:collect="always"
         stdDeviation="7.1726563"
         id="feGaussianBlur3826" />
    </filter>
  </defs>
  <sodipodi:namedview
     id="base"
     pagecolor="#ffffff"
     bordercolor="#666666"
     borderopacity="1.0"
     inkscape:pageopacity="0.0"
     inkscape:pageshadow="2"
     inkscape:zoom="11.313708"
     inkscape:cx="43.131752"
     inkscape:cy="25.114899"
     inkscape:document-units="px"
     inkscape:current-layer="layer1"
     showgrid="false"
     inkscape:window-width="1920"
     inkscape:window-height="1025"
     inkscape:window-x="-2"
     inkscape:window-y="-3"
     inkscape:window-maximized="1" />
  <metadata
     id="metadata3067">
    <rdf:RDF>
      <cc:Work
         rdf:about="">
        <dc:format>image/svg+xml</dc:format>
        <dc:type
           rdf:resource="http://purl.org/dc/dcmitype/StillImage" />
        <dc:title></dc:title>
      </cc:Work>
    </rdf:RDF>
  </metadata>
  <g
     inkscape:label="Layer 1"
     inkscape:groupmode="layer"
     id="layer1"
     transform="translate(0,-1020.3622)">
    <g
       transform="matrix(0.11266772,0,0,0.11266772,-14.770382,1008.1164)"
       id="g3828">
      <path
         sodipodi:nodetypes="ccaaaaaaaaaaaazccc"
         style="fill:#5083d4;fill-opacity:1;stroke:#000000;stroke-width:4.43782854;stroke-linecap:butt;stroke-linejoin:miter;stroke-miterlimit:4;stroke-opacity:1;stroke-dasharray:none"
         d="m 221.46707,256.20464 -26.26397,17.17259 c 0,0 0.94516,-39.16476 -8.08122,-55.55839 -1.49732,-2.71942 -4.02459,-5.46414 -7.07107,-6.06091 -2.08987,-0.40938 -5.05605,0.1427 -6.06091,2.0203 -1.81154,3.3849 4.5975,7.60688 3.03046,11.11168 -0.30732,0.68735 -1.28604,1.1767 -2.02031,1.01015 -3.74406,-0.84926 -3.32701,-8.24212 -7.07107,-9.09137 -2.93708,-0.66621 -7.12884,1.18347 -8.08122,4.04061 -1.19047,3.57143 6.24124,6.53009 5.05077,10.10152 -0.47619,1.42857 -2.58091,2.39025 -4.04061,2.02031 -3.9842,-1.00974 -2.96691,-9.87948 -7.07107,-10.10153 -3.57413,-0.19338 -7.28419,4.50821 -7.07107,8.08122 0.26972,4.52204 7.04448,5.74833 10.10153,9.09138 9.08915,9.93948 19.62473,23.17482 24.24366,32.32488 4.61893,9.15006 6.06091,20.20305 6.06091,20.20305 l 38.3858,-25.25381 z"
         id="path2989"
         inkscape:connector-curvature="0"
         inkscape:transform-center-x="3.3539809"
         inkscape:transform-center-y="-1.7367122" />
      <path
         inkscape:connector-curvature="0"
         id="path3022"
         d="m 241.46707,336.20464 -26.26397,17.17259 c 0,0 0.94516,-39.16476 -8.08122,-55.55839 -1.49732,-2.71942 -4.02459,-5.46414 -7.07107,-6.06091 -2.08987,-0.40938 -5.05605,0.1427 -6.06091,2.0203 -1.81154,3.3849 4.5975,7.60688 3.03046,11.11168 -0.30732,0.68735 -1.28604,1.1767 -2.02031,1.01015 -3.74406,-0.84926 -3.32701,-8.24212 -7.07107,-9.09137 -2.93708,-0.66621 -7.12884,1.18347 -8.08122,4.04061 -1.19047,3.57143 6.24124,6.53009 5.05077,10.10152 -0.47619,1.42857 -2.58091,2.39025 -4.04061,2.02031 -3.9842,-1.00974 -2.96691,-9.87948 -7.07107,-10.10153 -3.57413,-0.19338 -7.28419,4.50821 -7.07107,8.08122 0.26972,4.52204 7.04448,5.74833 10.10153,9.09138 9.08915,9.93948 19.62473,23.17482 24.24366,32.32488 4.61893,9.15006 6.06091,20.20305 6.06091,20.20305 l 38.3858,-25.25381 z"
         style="fill:#5083d4;fill-opacity:1;stroke:#000000;stroke-width:4.43782854;stroke-linecap:butt;stroke-linejoin:miter;stroke-miterlimit:4;stroke-opacity:1;stroke-dasharray:none"
         sodipodi:nodetypes="ccaaaaaaaaaaaazccc"
         inkscape:transform-center-x="3.8174227"
         inkscape:transform-center-y="-1.3306036" />
      <path
         inkscape:connector-curvature="0"
         id="path3024"
         d="m 324.74762,256.20464 26.26397,17.17259 c 0,0 -0.94516,-39.16476 8.08122,-55.55839 1.49732,-2.71942 4.02459,-5.46414 7.07107,-6.06091 2.08987,-0.40938 5.05605,0.1427 6.06091,2.0203 1.81154,3.3849 -4.5975,7.60688 -3.03046,11.11168 0.30732,0.68735 1.28604,1.1767 2.02031,1.01015 3.74406,-0.84926 3.32701,-8.24212 7.07107,-9.09137 2.93708,-0.66621 7.12884,1.18347 8.08122,4.04061 1.19047,3.57143 -6.24124,6.53009 -5.05077,10.10152 0.47619,1.42857 2.58091,2.39025 4.04061,2.02031 3.9842,-1.00974 2.96691,-9.87948 7.07107,-10.10153 3.57413,-0.19338 7.28419,4.50821 7.07107,8.08122 -0.26972,4.52204 -7.04448,5.74833 -10.10153,9.09138 -9.08915,9.93948 -19.62473,23.17482 -24.24366,32.32488 -4.61893,9.15006 -6.06091,20.20305 -6.06091,20.20305 l -38.3858,-25.25381 z"
         style="fill:#5083d4;fill-opacity:1;stroke:#000000;stroke-width:4.43782854;stroke-linecap:butt;stroke-linejoin:miter;stroke-miterlimit:4;stroke-opacity:1;stroke-dasharray:none"
         sodipodi:nodetypes="ccaaaaaaaaaaaazccc"
         inkscape:transform-center-x="-3.4423692"
         inkscape:transform-center-y="-1.7080456" />
      <path
         sodipodi:nodetypes="ccaaaaaaaaaaaazccc"
         style="fill:#5083d4;fill-opacity:1;stroke:#000000;stroke-width:4.43782854;stroke-linecap:butt;stroke-linejoin:miter;stroke-miterlimit:4;stroke-opacity:1;stroke-dasharray:none"
         d="m 304.74762,336.20464 26.26397,17.17259 c 0,0 -0.94516,-39.16476 8.08122,-55.55839 1.49732,-2.71942 4.02459,-5.46414 7.07107,-6.06091 2.08987,-0.40938 5.05605,0.1427 6.06091,2.0203 1.81154,3.3849 -4.5975,7.60688 -3.03046,11.11168 0.30732,0.68735 1.28604,1.1767 2.02031,1.01015 3.74406,-0.84926 3.32701,-8.24212 7.07107,-9.09137 2.93708,-0.66621 7.12884,1.18347 8.08122,4.04061 1.19047,3.57143 -6.24124,6.53009 -5.05077,10.10152 0.47619,1.42857 2.58091,2.39025 4.04061,2.02031 3.9842,-1.00974 2.96691,-9.87948 7.07107,-10.10153 3.57413,-0.19338 7.28419,4.50821 7.07107,8.08122 -0.26972,4.52204 -7.04448,5.74833 -10.10153,9.09138 -9.08915,9.93948 -19.62473,23.17482 -24.24366,32.32488 -4.61893,9.15006 -6.06091,20.20305 -6.06091,20.20305 l -38.3858,-25.25381 z"
         id="path3026"
         inkscape:connector-curvature="0"
         inkscape:transform-center-x="-3.9034215"
         inkscape:transform-center-y="-1.2446038" />
      <path
         sodipodi:nodetypes="zzzzzz"
         inkscape:connector-curvature="0"
         id="path2985"
         d="m 217.14286,256.6479 c 2.94399,-10.98713 34.62168,-30 55.71428,-30 21.0926,0 52.824,19.21329 55.71429,30 2.89029,10.78671 -23.63226,101.75095 -43.85714,115.71428 -20.22488,13.96333 -3.48941,13.96333 -23.71429,0 C 240.77512,358.39885 214.19887,267.63503 217.14286,256.6479 z"
         style="fill:#5083d4;fill-opacity:1;stroke:#000000;stroke-width:4.43782833;stroke-linecap:butt;stroke-linejoin:miter;stroke-miterlimit:4;stroke-opacity:1;stroke-dasharray:none" />
      <g
         id="g3117">
        <g
           id="g3910">
          <path
             style="fill:none;stroke:#000000;stroke-width:2;stroke-linecap:butt;stroke-linejoin:miter;stroke-miterlimit:4;stroke-opacity:1;stroke-dasharray:none"
             d="M 111.60821,22.41343 91.732772,12.093493"
             id="path3904"
             inkscape:connector-curvature="0"
             transform="translate(145.70701,117.56497)" />
          <path
             style="fill:none;stroke:#000000;stroke-width:2;stroke-linecap:butt;stroke-linejoin:miter;stroke-miterlimit:4;stroke-opacity:1;stroke-dasharray:none"
             d="m 111.22599,25.471189 -22.168758,-4.204419 0,0 0,0"
             id="path3906"
             inkscape:connector-curvature="0"
             transform="translate(145.70701,117.56497)" />
          <path
             style="fill:none;stroke:#000000;stroke-width:2;stroke-linecap:butt;stroke-linejoin:miter;stroke-miterlimit:4;stroke-opacity:1;stroke-dasharray:none"
             d="m 256.63968,146.47614 -24.46208,0.38222"
             id="path3908"
             inkscape:connector-curvature="0" />
        </g>
        <g
           transform="matrix(-1,0,0,1,531.49282,0)"
           id="g3915">
          <path
             transform="translate(145.70701,117.56497)"
             inkscape:connector-curvature="0"
             id="path3917"
             d="M 111.60821,22.41343 91.732772,12.093493"
             style="fill:none;stroke:#000000;stroke-width:2;stroke-linecap:butt;stroke-linejoin:miter;stroke-miterlimit:4;stroke-opacity:1;stroke-dasharray:none" />
          <path
             transform="translate(145.70701,117.56497)"
             inkscape:connector-curvature="0"
             id="path3919"
             d="m 111.22599,25.471189 -22.168758,-4.204419 0,0 0,0"
             style="fill:none;stroke:#000000;stroke-width:2;stroke-linecap:butt;stroke-linejoin:miter;stroke-miterlimit:4;stroke-opacity:1;stroke-dasharray:none" />
          <path
             inkscape:connector-curvature="0"
             id="path3921"
             d="m 256.63968,146.47614 -24.46208,0.38222"
             style="fill:none;stroke:#000000;stroke-width:2;stroke-linecap:butt;stroke-linejoin:miter;stroke-miterlimit:4;stroke-opacity:1;stroke-dasharray:none" />
        </g>
        <path
           style="fill:#5083d4;fill-opacity:1;stroke:#000000;stroke-width:4.43782833;stroke-linecap:butt;stroke-linejoin:miter;stroke-miterlimit:4;stroke-opacity:1;stroke-dasharray:none"
           d="m 259.4375,130.90625 c 0,0 -10.64838,57.71469 -27.25,63.78125 -16.60162,6.06656 -15.25,-9.46875 -15.25,-9.46875 -20.92804,4.92972 -35.35098,20.93483 -35.125,39 0.27564,22.035 22.00221,39.61272 48.5,39.28125 16.5257,-0.20672 31.00314,-7.31737 39.5,-18 8.49693,10.68229 22.97461,17.79328 39.5,18 26.49779,0.33147 48.19311,-17.24625 48.46875,-39.28125 0.22598,-18.06517 -14.16571,-34.07028 -35.09375,-39 0,0 3.402,13.66384 -13.78125,8.53125 C 291.723,188.61741 270.3125,130.90625 270.3125,130.90625 z"
           id="path3804"
           inkscape:connector-curvature="0"
           sodipodi:nodetypes="czcsscssczcc" />
        <path
           sodipodi:type="arc"
           style="fill:#000000;fill-opacity:1;stroke:none"
           id="path3809"
           sodipodi:cx="-64.649765"
           sodipodi:cy="134.13351"
           sodipodi:rx="12.12183"
           sodipodi:ry="12.12183"
           d="m -52.527935,134.13351 c 0,6.69471 -5.427128,12.12183 -12.12183,12.12183 -6.694702,0 -12.12183,-5.42712 -12.12183,-12.12183 0,-6.6947 5.427128,-12.12183 12.12183,-12.12183 6.694702,0 12.12183,5.42713 12.12183,12.12183 z"
           transform="translate(330.29957,-4.446712)" />
        <path
           transform="matrix(1.3333333,0,0,1.3333333,329.8901,6.8015043)"
           d="m -52.527935,134.13351 c 0,6.69471 -5.427128,12.12183 -12.12183,12.12183 -6.694702,0 -12.12183,-5.42712 -12.12183,-12.12183 0,-6.6947 5.427128,-12.12183 12.12183,-12.12183 6.694702,0 12.12183,5.42713 12.12183,12.12183 z"
           sodipodi:ry="12.12183"
           sodipodi:rx="12.12183"
           sodipodi:cy="134.13351"
           sodipodi:cx="-64.649765"
           id="path3811"
           style="fill:#000000;fill-opacity:1;stroke:none"
           sodipodi:type="arc" />
        <path
           sodipodi:type="arc"
           style="fill:#000000;fill-opacity:1;stroke:none"
           id="path3813"
           sodipodi:cx="-64.649765"
           sodipodi:cy="134.13351"
           sodipodi:rx="12.12183"
           sodipodi:ry="12.12183"
           d="m -52.527935,134.13351 c 0,6.69471 -5.427128,12.12183 -12.12183,12.12183 -6.694702,0 -12.12183,-5.42712 -12.12183,-12.12183 0,-6.6947 5.427128,-12.12183 12.12183,-12.12183 6.694702,0 12.12183,5.42713 12.12183,12.12183 z"
           transform="matrix(1.3333333,0,0,1.3333333,379.8901,6.8015043)" />
        <path
           style="opacity:0.8;fill:#eac63a;fill-opacity:1;stroke:none;filter:url(#filter3824)"
           d="m 271.35163,151.16893 c -39.61032,0 -71.71875,32.13968 -71.71875,71.75 0,39.61032 32.10843,71.71875 71.71875,71.71875 39.61032,0 71.71875,-32.10843 71.71875,-71.71875 0,-39.61032 -32.10843,-71.75 -71.71875,-71.75 z m 0,20.21875 c 28.45248,0 51.5,23.07877 51.5,51.53125 0,28.45248 -23.04752,51.5 -51.5,51.5 -28.45248,0 -51.53125,-23.04752 -51.53125,-51.5 0,-28.45248 23.07877,-51.53125 51.53125,-51.53125 z"
           id="path3815"
           inkscape:connector-curvature="0" />
      </g>
    </g>
  </g>
</svg>
